<svg xmlns="http://www.w3.org/2000/svg" viewBox="0 0 380 120" fill="none" aria-hidden="true">
  <defs>
    <linearGradient id="lf-badge" x1="22" y1="22" x2="98" y2="98" gradientUnits="userSpaceOnUse">
      <stop offset="0%" stop-color="#1490be"/>
      <stop offset="100%" stop-color="#021822"/>
    </linearGradient>
    <linearGradient id="lf-accent" x1="64" y1="64" x2="98" y2="98" gradientUnits="userSpaceOnUse">
      <stop offset="0%" stop-color="#ffd4a8"/>
      <stop offset="100%" stop-color="#c94e12"/>
    </linearGradient>
    <linearGradient id="lf-revive" x1="118" y1="20" x2="280" y2="52" gradientUnits="userSpaceOnUse">
      <stop offset="0%" stop-color="#053448"/>
      <stop offset="100%" stop-color="#084d6e"/>
    </linearGradient>
    <linearGradient id="lf-hogar" x1="118" y1="55" x2="280" y2="95" gradientUnits="userSpaceOnUse">
      <stop offset="0%" stop-color="#f9a66b"/>
      <stop offset="100%" stop-color="#e06530"/>
    </linearGradient>
    <filter id="lf-shadow" x="-20%" y="-20%" width="140%" height="140%">
      <feDropShadow dx="0" dy="4" stdDeviation="4" flood-color="#084d6e" flood-opacity="0.28"/>
    </filter>
  </defs>
  <g transform="translate(8,10)" filter="url(#lf-shadow)">
    <rect x="10" y="10" width="88" height="88" rx="24" fill="url(#lf-badge)"/>
    <path d="M54 24 L26 42 V45 L54 29 L82 45 V42 Z" fill="#1a9fd0"/>
    <path d="M54 24 L54 29 L82 45 V42 Z" fill="#084d6e"/>
    <path d="M28 46 H80 V84 C80 87.3 77.3 90 74 90 H34 C30.7 90 28 87.3 28 84 Z" fill="#084d6e"/>
    <path d="M56 58 H80 V84 C80 87.3 77.3 90 74 90 H56 Z" fill="url(#lf-accent)"/>
    <path fill="#fff" d="M36 48 H52.5 C59.4 48 65 53.6 65 60.5 C65 65.2 62.2 69.3 58 71.4 L67.5 84 H61.2 L53.2 72.2 H42 V84 H36 V48 Z M40 52 V68.2 H52.5 C57.2 68.2 61 64.4 61 59.7 C61 55 57.2 51.2 52.5 51.2 H40 V52 Z"/>
    <path d="M0 -3 L1 1 L4 1.5 L1 2.5 L0 5.5 L-1 2.5 L-4 1.5 L-1 1 Z" fill="#ffd4a8" transform="translate(88,22)"/>
  </g>
  <text x="118" y="50" font-family="'Plus Jakarta Sans',Segoe UI,sans-serif" font-size="36" font-weight="700" letter-spacing="-0.8" fill="url(#lf-revive)">Revive</text>
  <text x="118" y="92" font-family="'Plus Jakarta Sans',Segoe UI,sans-serif" font-size="36" font-weight="800" letter-spacing="-0.5" fill="url(#lf-hogar)">Hogar</text>
  <text x="120" y="108" font-family="'Plus Jakarta Sans',Segoe UI,sans-serif" font-size="10.5" font-weight="700" letter-spacing="0.28em" fill="#084d6e" fill-opacity="0.45">GRUPO INMOBILIARIO</text>
</svg>
