<svg xmlns="http://www.w3.org/2000/svg" viewBox="0 0 360 110" fill="none" aria-hidden="true">
  <defs>
    <linearGradient id="rh-plate-f" x1="0" y1="0" x2="100" y2="100" gradientUnits="userSpaceOnUse">
      <stop offset="0%" stop-color="#0d7aa8"/>
      <stop offset="50%" stop-color="#084d6e"/>
      <stop offset="100%" stop-color="#032a3d"/>
    </linearGradient>
    <linearGradient id="rh-accent-f" x1="58" y1="58" x2="92" y2="92" gradientUnits="userSpaceOnUse">
      <stop offset="0%" stop-color="#ffc08a"/>
      <stop offset="100%" stop-color="#e06530"/>
    </linearGradient>
    <linearGradient id="rh-text-revive" x1="110" y1="20" x2="260" y2="50" gradientUnits="userSpaceOnUse">
      <stop offset="0%" stop-color="#084d6e"/>
      <stop offset="100%" stop-color="#053448"/>
    </linearGradient>
    <linearGradient id="rh-text-hogar" x1="110" y1="55" x2="260" y2="95" gradientUnits="userSpaceOnUse">
      <stop offset="0%" stop-color="#f9a66b"/>
      <stop offset="100%" stop-color="#e06530"/>
    </linearGradient>
    <filter id="rh-glow-f" x="-20%" y="-20%" width="140%" height="140%">
      <feDropShadow dx="0" dy="4" stdDeviation="4" flood-color="#084d6e" flood-opacity="0.25"/>
    </filter>
  </defs>

  <g transform="translate(8,5) scale(1)" filter="url(#rh-glow-f)">
    <rect x="14" y="14" width="72" height="72" rx="20" fill="url(#rh-plate-f)"/>
    <path d="M50 20 L22 38.5 L78 38.5 Z" fill="#1a8fbf"/>
    <path d="M24 40 H76 V78 C76 81.3 73.3 84 70 84 H30 C26.7 84 24 81.3 24 78 Z" fill="#084d6e"/>
    <path d="M58 58 H76 V78 C76 81.3 73.3 84 70 84 H58 Z" fill="url(#rh-accent-f)"/>
    <path fill="#fff" d="M34 42 H48 C54.6 42 60 47.4 60 54 C60 58.2 57.6 61.9 54 63.8 L62 78 H56.5 L49.2 64.5 H38 V78 H34 V42 Z M38 46 V60.5 H48 C52.4 60.5 56 56.9 56 52.5 C56 48.1 52.4 44.5 48 44.5 H38 Z"/>
    <path d="M88 24 L89.6 27.8 L93.5 28.5 L90.5 31.2 L91.2 35 L88 33.2 L84.8 35 L85.5 31.2 L82.5 28.5 L86.4 27.8 Z" fill="#ffc08a"/>
  </g>

  <text x="112" y="48" font-family="'Plus Jakarta Sans',Segoe UI,sans-serif" font-size="34" font-weight="700" letter-spacing="-0.5" fill="url(#rh-text-revive)">Revive</text>
  <text x="112" y="88" font-family="'Plus Jakarta Sans',Segoe UI,sans-serif" font-size="34" font-weight="800" letter-spacing="-0.3" fill="url(#rh-text-hogar)">Hogar</text>
  <text x="112" y="102" font-family="'Plus Jakarta Sans',Segoe UI,sans-serif" font-size="11" font-weight="600" letter-spacing="0.22em" fill="#084d6e" fill-opacity="0.55">GRUPO INMOBILIARIO</text>
</svg>
